<svg width="32" height="32" viewBox="0 0 32 32" fill="none" xmlns="http://www.w3.org/2000/svg">
<rect width="32" height="32" rx="4" fill="#0E0E0E"/>
<path d="M15.18 23.28C11.06 23.28 8.74 20.16 8.74 15.84C8.74 11.54 11.36 8.42 15.44 8.42C19.14 8.42 21.1 10.4 21.56 13.12H19.26C18.88 11.32 17.54 10.32 15.42 10.32C12.26 10.32 11.04 13.16 11.04 15.84C11.04 18.54 11.96 21.38 15.3 21.38C17.66 21.38 19.54 19.74 19.56 17.36H15.34V15.52H21.8V23H20.28L19.74 21.02H19.7C18.7 22.48 17.36 23.28 15.18 23.28Z" fill="#E9E9E9"/>
</svg>
