<svg width="16" height="16" viewBox="0 0 16 16" fill="none" xmlns="http://www.w3.org/2000/svg">
<rect width="16" height="16" rx="3" fill="#FAFAFA"/>
<path d="M9.664 7.008C9.496 6.192 8.84 5.808 7.976 5.808C6.616 5.808 6.04 7.064 6.04 8.136C6.04 9.216 6.456 10.472 7.896 10.472C8.92 10.472 9.76 9.736 9.76 8.664H7.896V8.024H10.48V11H10L9.76 10.192H9.744C9.312 10.792 8.776 11.112 7.896 11.112C6.232 11.112 5.32 9.864 5.32 8.136C5.32 6.416 6.392 5.168 7.976 5.168C9.424 5.168 10.184 5.92 10.384 7.008H9.664Z" fill="black"/>
</svg>
